<svg width="185" height="173" viewBox="0 0 185 173" fill="none" xmlns="http://www.w3.org/2000/svg">
<path d="M133.457 164.835H50.8679C27.9742 164.835 9.24466 147.328 9.24466 125.929V46.8028C9.24466 25.4038 27.9742 7.89697 50.8679 7.89697H133.457C156.351 7.89697 175.081 25.4038 175.081 46.8028V125.938C175.071 147.328 156.342 164.835 133.457 164.835Z" fill="#FDC61D"/>
<path d="M133.457 164.835H50.8679C27.9742 164.835 9.24466 147.328 9.24466 125.929V46.8028C9.24466 25.4038 27.9742 7.89697 50.8679 7.89697H133.457C156.351 7.89697 175.081 25.4038 175.081 46.8028V125.938C175.071 147.328 156.342 164.835 133.457 164.835Z" fill="#FDC61D"/>
<path d="M172.23 143.696C168.297 140.651 162.458 141.161 159.201 144.837C153.112 151.697 144.21 155.632 134.78 155.632H50.2199C32.7304 155.632 18.4982 142.329 18.4982 125.981V46.95C18.4982 30.6023 32.7304 17.2992 50.2199 17.2992H134.78C150.077 17.2992 163.198 27.5144 165.984 41.5959C166.909 46.2926 171.74 49.3978 176.764 48.5329C181.789 47.6679 185.111 43.1528 184.186 38.4561C179.79 16.1747 159.016 0 134.789 0H50.2291C22.5328 0 0 21.0618 0 46.95V125.99C0 151.878 22.5328 172.94 50.2291 172.94H134.789C149.753 172.94 163.846 166.721 173.461 155.883C176.709 152.198 176.163 146.749 172.23 143.696Z" fill="#141648"/>
<path d="M175.746 53.8438C170.638 53.8438 166.493 57.7188 166.493 62.4933V68.8248C166.493 73.5994 170.638 77.4744 175.746 77.4744C180.854 77.4744 185 73.5994 185 68.8248V62.4933C185 57.7188 180.864 53.8438 175.746 53.8438Z" fill="#141648"/>
<path d="M175.746 85.2935C170.638 85.2935 166.493 89.1685 166.493 93.9431V99.8594C166.493 104.634 170.638 108.509 175.746 108.509C180.854 108.509 185 104.634 185 99.8594V93.9431C185 89.1685 180.864 85.2935 175.746 85.2935Z" fill="#141648"/>
<path d="M175.746 116.484C170.638 116.484 166.492 120.359 166.492 125.134V125.981C166.492 126.82 166.455 127.677 166.372 128.516C165.937 133.273 169.713 137.459 174.802 137.866C175.071 137.883 175.339 137.9 175.598 137.9C180.355 137.9 184.398 134.492 184.806 129.986C184.926 128.663 184.991 127.313 184.991 125.981V125.134C185 120.359 180.863 116.484 175.746 116.484Z" fill="#141648"/>
<path d="M90.9726 45.488C66.2467 45.488 46.1384 64.2923 46.1384 87.3953C46.1384 110.498 66.256 129.303 90.9726 129.303C115.689 129.303 135.807 110.498 135.807 87.3953C135.807 64.2923 115.699 45.488 90.9726 45.488ZM90.9726 116.337C73.8995 116.337 60.019 103.354 60.019 87.404C60.019 71.4541 73.9088 58.4711 90.9726 58.4711C108.037 58.4711 121.926 71.4541 121.926 87.404C121.926 103.354 108.046 116.337 90.9726 116.337Z" fill="#141648"/>
<path d="M152.376 45.4268C154.705 40.1705 152.035 34.1443 146.411 31.9672C140.788 29.7892 134.341 32.2855 132.012 37.5418C129.682 42.7982 132.352 48.8252 137.976 51.0023C143.6 53.1794 150.047 50.6832 152.376 45.4268Z" fill="#141648"/>
</svg>
