<svg width="247" height="221" viewBox="0 0 247 221" fill="none" xmlns="http://www.w3.org/2000/svg">
<path d="M202.532 28.6444C204.163 28.2444 222.058 56.8528 230.482 99.0759C239.222 142.871 231.821 182.198 229.398 180.57C215.01 191.743 199.635 200.585 183.287 207.468C178.649 209.427 176.044 208.392 173.865 203.62C171.82 199.123 169.47 194.805 167.085 190.529C165.502 187.688 166.159 186.419 168.813 185.191C174.06 182.777 179.221 180.101 183.896 176.39C181.85 172.335 179.477 172.045 175.837 173.825C140.84 191.012 105.708 190.833 70.6747 173.963C67.1445 172.266 64.6856 172.045 62.2996 176.349C66.9132 180.018 71.9771 182.749 77.175 185.039C80.133 186.336 80.7539 187.729 79.0253 190.764C76.2133 195.702 73.4622 200.681 70.9302 205.799C69.3599 208.958 67.5949 209.068 64.7586 207.978C46.9739 201.233 30.6134 191.467 15.2998 179.273C12.6583 177.163 11.66 174.597 11.4531 171.149C8.55594 120.539 19.1829 73.9296 43.5411 31.3342C44.9044 28.9616 46.6695 27.6099 48.8363 26.5339C61.1431 20.4095 73.9491 16.1196 87.0351 12.6987C91.2956 11.5814 93.0607 13.885 94.0711 17.6921C95.7388 23.9545 98.502 26.2167 104.844 25.0166C118.502 22.4233 132.331 23.0854 146.013 25.6373C148.691 26.1339 149.3 24.4511 150.225 22.313C155.472 10.1606 152.355 11.4021 165.21 14.3677C167.827 14.9747 170.469 15.6092 173.001 16.5885C183.835 20.7819 190.408 22.8647 194.9 24.989L202.532 28.6444Z" fill="#FDC61D"/>
<path d="M202.021 54.9493C203.019 57.1839 204.139 59.6392 205.381 62.3566C205.965 63.6118 206.525 64.8809 207.073 66.1499C208.984 70.5364 212.867 73.0744 216.909 73.0744C218.54 73.0744 220.183 72.6606 221.741 71.7916C227.17 68.7569 229.398 61.322 226.72 55.17C226.099 53.7354 225.454 52.3147 224.809 50.8939C223.592 48.2593 222.52 45.8591 221.546 43.6935C218.795 37.5828 212.198 35.1551 206.817 38.2725C201.412 41.3623 199.27 48.8386 202.021 54.9493Z" fill="#1E1D42"/>
<path d="M223.202 170.335C210.53 180.184 197.054 188.171 182.081 194.723C181.741 194.019 181.388 193.316 181.035 192.626C184.078 190.929 187.194 188.943 190.189 186.557C194.814 182.874 196.214 175.798 193.402 170.239C188.703 160.928 180.499 158.017 171.467 162.445C139.245 178.267 107.668 178.308 74.9471 162.542C62.6281 156.61 55.9086 164.514 53.0114 169.742C49.9073 175.342 51.2219 182.708 55.9937 186.515C58.7692 188.722 61.7395 190.722 65.0627 192.585C64.7097 193.233 64.3688 193.895 64.0158 194.557C49.6395 188.626 35.957 180.474 22.3354 169.728C19.7304 122.264 29.9314 78.0266 52.6461 38.2451C52.7435 38.1761 52.9261 38.0658 53.2304 37.9141C62.6036 33.2379 72.8412 29.417 85.1725 25.9823C89.1652 35.1828 96.6514 39.1831 106.633 37.2795C118.064 35.1139 130.359 35.3208 144.211 37.9141C149.068 38.8245 155.727 37.8451 159.939 28.0377L160.036 27.8031C160.304 27.1824 160.547 26.6031 160.779 26.0513C161.46 26.2169 162.191 26.3962 162.982 26.5755C165.417 27.1411 167.583 27.6652 169.422 28.3825C173.962 30.1343 177.833 31.5551 180.937 32.7C185.283 34.2863 188.424 35.445 190.663 36.4933C196.251 39.1279 202.666 36.1347 204.991 29.8033C207.316 23.4719 204.674 16.2025 199.087 13.5679C196.02 12.1195 192.526 10.8367 187.681 9.07109C184.492 7.89861 180.876 6.5744 176.518 4.89155C173.451 3.70528 170.444 2.9742 167.376 2.25692C165.782 1.88448 164.443 1.53962 163.311 1.24995C158.868 0.118853 155.033 -0.86051 150.7 1.20857C145.623 3.63629 143.7 8.53313 142.154 12.4782C128.508 10.4367 115.994 10.4781 104.077 12.6023C100.9 2.85005 93.5353 -1.71571 84.5394 0.629251C68.885 4.71223 56.1399 9.34697 44.393 15.1956C41.5689 16.6025 37.4544 19.0992 34.3137 24.603C8.82352 69.1709 -2.57043 118.746 0.484985 171.963C0.911039 179.425 3.75948 185.315 8.96951 189.44C25.9143 202.916 43.0174 212.834 61.2525 219.759C63.5532 220.628 65.6226 221 67.4729 221C74.9715 221 78.9277 214.958 80.4493 211.882C83.0909 206.558 85.9759 201.399 88.2035 197.481C88.8243 196.392 89.3234 195.33 89.7008 194.295C112.014 200.626 134.351 200.64 156.494 194.364C156.835 195.261 157.273 196.185 157.796 197.123C159.939 200.985 162.203 205.096 164.114 209.289C168.837 219.676 177.212 223.235 187.085 219.083C204.565 211.717 220.877 202.199 235.582 190.791C240.573 186.915 241.839 179.191 238.418 173.535C235.009 167.907 228.193 166.459 223.202 170.335Z" fill="#1E1D42"/>
<path d="M217.602 97.2551C218.405 100.469 219.135 103.752 219.793 107.007C220.949 112.773 225.465 116.677 230.468 116.677C231.272 116.677 232.087 116.58 232.903 116.373C238.807 114.856 242.507 108.207 241.168 101.517C240.426 97.8206 239.598 94.1101 238.697 90.4961C237.054 83.9027 230.992 80.068 225.173 81.9301C219.342 83.8061 215.958 90.6616 217.602 97.2551Z" fill="#1E1D42"/>
<path d="M246.89 140.168C246.757 133.312 241.753 127.864 235.703 128.029C229.653 128.181 224.857 133.864 224.991 140.706C225.052 143.92 225.089 147.203 225.089 150.472C225.089 157.327 229.994 162.886 236.044 162.886C242.094 162.886 247 157.327 247 150.472C246.988 147.023 246.964 143.561 246.89 140.168Z" fill="#1E1D42"/>
<path d="M105.915 117.132C105.294 106.07 97.503 95.9725 88.5558 94.5518C79.4261 93.1034 70.966 99.2141 67.3384 110.111C64.7578 117.85 64.916 125.629 68.2514 133.064C72.0007 141.423 77.6732 146.886 86.4256 146.568C95.1292 146.251 100.522 140.527 103.967 131.975C105.391 128.443 106.219 124.719 105.951 120.774C105.915 119.56 105.975 118.346 105.915 117.132Z" fill="#1E1D42"/>
<path d="M140.389 124.181C141.131 134.416 148.277 144.223 156.42 146.224C164.674 148.265 173.17 143.658 177.455 134.402C181.412 125.85 181.801 116.925 178.137 108.111C174.68 99.8072 169.032 94.5655 160.608 94.4C152.111 94.2207 146.572 99.6003 142.787 107.642C140.912 111.615 139.987 115.96 140.389 120.953C140.376 121.753 140.303 122.981 140.389 124.181Z" fill="#1E1D42"/>
</svg>
