<svg width="172" height="151" viewBox="0 0 172 151" fill="none" xmlns="http://www.w3.org/2000/svg">
<path d="M124.079 143.923H47.2928C26.0079 143.923 8.59448 128.638 8.59448 109.953V40.8652C8.59448 22.1809 26.0079 6.89514 47.2928 6.89514H124.079C145.363 6.89514 162.777 22.1809 162.777 40.8652V109.961C162.768 128.638 145.355 143.923 124.079 143.923Z" fill="#FDC61D"/>
<path d="M160.127 125.466C156.471 122.807 151.042 123.253 148.014 126.463C142.353 132.452 134.076 135.888 125.309 135.888H46.6909C30.4304 135.888 17.1983 124.273 17.1983 109.999V40.9937C17.1983 26.7199 30.4304 15.1045 46.6909 15.1045H125.309C139.531 15.1045 151.73 24.0238 154.32 36.3188C155.18 40.4197 159.671 43.131 164.343 42.3758C169.015 41.6205 172.103 37.6783 171.243 33.5774C167.156 14.1227 147.842 0 125.318 0H46.6995C20.9494 0 0 18.3898 0 40.9937V110.006C0 132.61 20.9494 151 46.6995 151H125.318C139.23 151 152.333 145.57 161.272 136.107C164.291 132.89 163.784 128.132 160.127 125.466Z" fill="#1E1D42"/>
<path d="M163.396 47.0128C158.647 47.0128 154.793 50.3962 154.793 54.5651V60.0933C154.793 64.2622 158.647 67.6456 163.396 67.6456C168.146 67.6456 172 64.2622 172 60.0933V54.5651C172 50.3962 168.154 47.0128 163.396 47.0128Z" fill="#1E1D42"/>
<path d="M163.396 74.4731C158.647 74.4731 154.793 77.8566 154.793 82.0254V87.1912C154.793 91.36 158.647 94.7434 163.396 94.7434C168.146 94.7434 172 91.36 172 87.1912V82.0254C172 77.8566 168.154 74.4731 163.396 74.4731Z" fill="#1E1D42"/>
<path d="M163.397 101.706C158.648 101.706 154.793 105.09 154.793 109.259V109.999C154.793 110.731 154.759 111.479 154.681 112.211C154.277 116.365 157.787 120.021 162.519 120.375C162.769 120.391 163.018 120.406 163.259 120.406C167.681 120.406 171.441 117.43 171.82 113.495C171.931 112.34 171.992 111.162 171.992 109.999V109.259C172 105.09 168.154 101.706 163.397 101.706Z" fill="#1E1D42"/>
<line y1="-8" x2="91.5826" y2="-8" transform="matrix(0.798506 0.601987 -0.699331 0.714798 17.207 29.4539)" stroke="#1E1D42" stroke-width="16"/>
<line y1="-8" x2="88.3965" y2="-8" transform="matrix(0.72996 -0.68349 0.772148 0.635443 90.3357 84.5853)" stroke="#1E1D42" stroke-width="16"/>
</svg>
