<svg width="199" height="170" viewBox="0 0 199 170" fill="none" xmlns="http://www.w3.org/2000/svg">
<path d="M143.915 162.127H55.0759C30.4498 162.127 10.3029 144.917 10.3029 123.882V46.1008C10.3029 25.0655 30.4498 7.85632 55.0759 7.85632H143.915C168.541 7.85632 188.688 25.0655 188.688 46.1008V123.891C188.688 144.926 168.541 162.127 143.915 162.127Z" fill="#FDC61D"/>
<path d="M162.191 91.1388C161.832 85.9012 160.847 81.6584 159.085 77.7728C155.661 70.2225 149.559 65.3761 140.949 63.3439C135.136 61.975 128.825 61.839 122.186 62.9273C118.542 63.5225 115.238 64.6533 112.341 66.2943C110.778 64.3217 108.131 63.1569 104.816 63.1484C99.8289 63.1399 94.852 63.1399 89.8651 63.1484C84.3705 63.1484 80.8168 66.2008 80.8168 70.9112C80.8168 89.4298 80.8168 107.948 80.8168 126.475C80.8168 131.186 84.3705 134.23 89.8551 134.238C93.6277 134.247 97.3903 134.238 101.163 134.238H104.458C110.36 134.238 113.894 131.228 113.894 126.195V119.206C113.904 112.208 113.904 105.202 113.874 98.2044C113.864 96.1723 114.242 94.2422 115.029 92.3036C116.661 88.2649 119.598 87.7548 121.668 87.7208C125.023 87.6697 126.764 88.6986 127.909 91.3939C128.556 92.9328 128.865 94.7099 128.875 97.0055C128.895 103.969 128.895 110.933 128.895 117.896V126.637C128.895 131.084 132.488 134.213 137.624 134.23C140.332 134.238 143.029 134.247 145.687 134.247C148.414 134.247 151.112 134.238 153.76 134.23C158.876 134.204 162.449 131.118 162.469 126.722L162.479 124.826C162.489 121.705 162.509 118.474 162.469 115.286C162.44 112.684 162.459 110.014 162.479 107.438C162.529 102.116 162.569 96.6144 162.191 91.1388ZM152.525 115.363C152.565 118.5 152.545 121.697 152.535 124.8V125.736C148.106 125.753 143.527 125.753 138.859 125.736V117.905C138.859 110.933 138.869 103.961 138.839 96.9885C138.829 93.6896 138.331 91.0027 137.286 88.52C134.708 82.3982 129.133 79.0992 121.489 79.2267C114.023 79.3542 108.24 83.1039 105.642 89.5318C104.497 92.3461 103.93 95.2795 103.94 98.2469C103.97 105.236 103.96 112.225 103.96 119.214V125.753H101.183C97.7188 125.753 94.2547 125.753 90.7907 125.753C90.7907 107.727 90.7907 89.7018 90.7907 71.6764C95.1805 71.6764 99.5701 71.6764 103.96 71.6764C103.96 72.3226 103.96 72.9858 103.96 73.6916V75.171C103.96 76.999 105.324 78.623 107.354 79.2012C109.385 79.7794 111.624 79.1927 112.908 77.7303C114.262 76.1998 115.268 75.154 116.382 74.3462C118.523 72.7988 121.041 71.804 124.077 71.3023C129.273 70.4436 133.931 70.5371 138.311 71.5659C143.796 72.8583 147.558 75.9022 149.808 80.8677C151.182 83.8946 151.958 87.3211 152.257 91.6489C152.605 96.8525 152.565 102.218 152.535 107.404C152.515 109.997 152.496 112.693 152.525 115.363Z" fill="#1E1D42"/>
<path d="M67.001 63.157C62.88 63.157 58.7492 63.157 54.6282 63.157H52.8564C46.8541 63.157 43.2707 66.2179 43.2707 71.3449V126.203C43.2707 131.075 46.9735 134.23 52.6871 134.23C55.2254 134.23 57.7537 134.238 60.292 134.238C62.5515 134.238 64.8111 134.238 67.0607 134.23C72.6847 134.221 76.3278 131.101 76.3278 126.288C76.3378 107.906 76.3378 89.5149 76.3278 71.1324C76.3378 66.2944 72.6747 63.157 67.001 63.157ZM66.3838 125.736C61.9941 125.744 57.6144 125.744 53.2247 125.736V71.6595H54.6282C58.5401 71.6595 62.4619 71.6595 66.3838 71.6595C66.3938 89.6849 66.3938 107.71 66.3838 125.736Z" fill="#1E1D42"/>
<path d="M60.4411 24.955C60.3913 24.955 60.3415 24.955 60.2917 24.955C55.0858 24.955 50.1686 26.6895 46.4259 29.8524C42.6235 33.0664 40.5231 37.3517 40.5032 41.909C40.4933 46.4579 42.5339 50.7262 46.2666 53.9317C49.9994 57.1371 54.9863 58.9141 60.3117 58.9226C60.3316 58.9226 60.3416 58.9226 60.3615 58.9226C65.6769 58.9226 70.6937 57.1456 74.4762 53.9061C78.2388 50.6922 80.2993 46.4494 80.2794 41.9601C80.2496 32.6583 71.3506 25.023 60.4411 24.955ZM67.4388 47.9033C65.5375 49.5273 63.0192 50.4286 60.3615 50.4286C60.3515 50.4286 60.3415 50.4286 60.3316 50.4286C57.6739 50.4201 55.1853 49.5443 53.3239 47.9459C51.4626 46.3474 50.4472 44.2132 50.4572 41.9346C50.4671 39.6559 51.5223 37.5047 53.4235 35.8977C55.2849 34.3248 57.7136 33.466 60.2818 33.466C60.3017 33.466 60.3316 33.466 60.3515 33.466C65.8262 33.5 70.2956 37.3262 70.3155 42.0026C70.3453 44.2047 69.3201 46.2964 67.4388 47.9033Z" fill="#1E1D42"/>
<path d="M185.264 141.253C181.033 138.26 174.752 138.762 171.248 142.375C164.699 149.118 155.123 152.986 144.98 152.986H54.0203C35.2073 152.986 19.898 139.909 19.898 123.84V46.1518C19.898 30.082 35.2073 17.0051 54.0203 17.0051H144.98C161.434 17.0051 175.548 27.0466 178.545 40.8888C179.54 45.5056 184.736 48.5581 190.141 47.7078C195.546 46.8576 199.12 42.4192 198.124 37.8023C193.396 15.8998 171.049 0 144.99 0H54.0303C24.238 0 0 20.7037 0 46.1518V123.848C0 149.296 24.238 170 54.0303 170H144.99C161.085 170 176.245 163.887 186.587 153.233C190.081 149.611 189.494 144.246 185.264 141.253Z" fill="#1E1D42"/>
<path d="M189.046 52.9283C183.551 52.9283 179.092 56.7375 179.092 61.4309V67.6548C179.092 72.3482 183.551 76.1573 189.046 76.1573C194.541 76.1573 199 72.3482 199 67.6548V61.4309C199 56.7375 194.551 52.9283 189.046 52.9283Z" fill="#1E1D42"/>
<path d="M189.046 83.8436C183.551 83.8436 179.092 87.6528 179.092 92.3462V98.1619C179.092 102.855 183.551 106.664 189.046 106.664C194.541 106.664 199 102.855 199 98.1619V92.3462C199 87.6528 194.551 83.8436 189.046 83.8436Z" fill="#1E1D42"/>
<path d="M189.047 114.504C183.552 114.504 179.093 118.313 179.093 123.006V123.84C179.093 124.664 179.053 125.506 178.963 126.331C178.496 131.007 182.557 135.122 188.032 135.522C188.32 135.539 188.609 135.556 188.888 135.556C194.004 135.556 198.354 132.206 198.792 127.776C198.921 126.475 198.991 125.149 198.991 123.84V123.006C199.001 118.313 194.551 114.504 189.047 114.504Z" fill="#1E1D42"/>
</svg>
